<svg xmlns="http://www.w3.org/2000/svg" viewBox="0 0 32 32" width="32" height="32">
  <rect width="32" height="32" fill="none"/>
  <rect x="12" y="2" width="4" height="2" fill="#6B8E23"/>
  <rect x="14" y="4" width="2" height="2" fill="#556B2F"/>
  <rect x="22" y="4" width="4" height="2" fill="#6B8E23"/>
  <rect x="24" y="6" width="2" height="2" fill="#556B2F"/>
  <rect x="10" y="6" width="2" height="2" fill="#8B4513"/>
  <rect x="12" y="6" width="10" height="2" fill="#A0522D"/>
  <rect x="22" y="6" width="2" height="2" fill="#8B4513"/>
  <rect x="8" y="8" width="2" height="4" fill="#A0522D"/>
  <rect x="10" y="8" width="14" height="2" fill="#CD853F"/>
  <rect x="24" y="8" width="2" height="4" fill="#A0522D"/>
  <rect x="6" y="12" width="2" height="6" fill="#8B4513"/>
  <rect x="8" y="10" width="2" height="2" fill="#A0522D"/>
  <rect x="10" y="10" width="4" height="2" fill="#DEB887"/>
  <rect x="14" y="10" width="4" height="2" fill="#CD853F"/>
  <rect x="18" y="10" width="2" height="2" fill="#DEB887"/>
  <rect x="20" y="10" width="4" height="2" fill="#CD853F"/>
  <rect x="24" y="12" width="2" height="2" fill="#DEB887"/>
  <rect x="8" y="12" width="2" height="2" fill="#CD853F"/>
  <rect x="10" y="12" width="4" height="2" fill="#9ACD32"/>
  <rect x="14" y="12" width="2" height="2" fill="#DEB887"/>
  <rect x="16" y="12" width="4" height="2" fill="#CD853F"/>
  <rect x="20" y="12" width="2" height="2" fill="#9ACD32"/>
  <rect x="22" y="12" width="2" height="2" fill="#DEB887"/>
  <rect x="8" y="14" width="2" height="4" fill="#CD853F"/>
  <rect x="10" y="14" width="2" height="2" fill="#DEB887"/>
  <rect x="12" y="14" width="4" height="2" fill="#CD853F"/>
  <rect x="16" y="14" width="2" height="2" fill="#6B8E23"/>
  <rect x="18" y="14" width="4" height="2" fill="#DEB887"/>
  <rect x="22" y="14" width="2" height="4" fill="#CD853F"/>
  <rect x="6" y="18" width="2" height="4" fill="#A0522D"/>
  <rect x="8" y="18" width="2" height="2" fill="#DEB887"/>
  <rect x="10" y="16" width="4" height="2" fill="#CD853F"/>
  <rect x="14" y="16" width="2" height="2" fill="#DEB887"/>
  <rect x="16" y="16" width="2" height="2" fill="#CD853F"/>
  <rect x="18" y="16" width="2" height="2" fill="#DEB887"/>
  <rect x="20" y="16" width="4" height="2" fill="#CD853F"/>
  <rect x="24" y="16" width="2" height="2" fill="#A0522D"/>
  <rect x="10" y="18" width="2" height="2" fill="#556B2F"/>
  <rect x="12" y="18" width="2" height="2" fill="#DEB887"/>
  <rect x="14" y="18" width="4" height="2" fill="#CD853F"/>
  <rect x="18" y="18" width="2" height="2" fill="#DEB887"/>
  <rect x="20" y="18" width="2" height="2" fill="#6B8E23"/>
  <rect x="22" y="18" width="2" height="2" fill="#DEB887"/>
  <rect x="8" y="22" width="2" height="2" fill="#8B4513"/>
  <rect x="10" y="20" width="4" height="2" fill="#CD853F"/>
  <rect x="14" y="20" width="2" height="2" fill="#DEB887"/>
  <rect x="16" y="20" width="2" height="2" fill="#CD853F"/>
  <rect x="18" y="20" width="4" height="2" fill="#DEB887"/>
  <rect x="22" y="20" width="2" height="2" fill="#CD853F"/>
  <rect x="24" y="20" width="2" height="2" fill="#8B4513"/>
  <rect x="10" y="22" width="2" height="2" fill="#DEB887"/>
  <rect x="12" y="22" width="4" height="2" fill="#CD853F"/>
  <rect x="16" y="22" width="2" height="2" fill="#556B2F"/>
  <rect x="18" y="22" width="4" height="2" fill="#CD853F"/>
  <rect x="22" y="22" width="2" height="2" fill="#DEB887"/>
  <rect x="10" y="24" width="6" height="2" fill="#8B4513"/>
  <rect x="16" y="24" width="6" height="2" fill="#8B4513"/>
  <rect x="12" y="26" width="8" height="2" fill="#654321"/>
</svg>